<?xml version="1.0" encoding="UTF-8" standalone="no"?>
<!-- Created with Inkscape (http://www.inkscape.org/) -->

<svg
   xmlns:dc="http://purl.org/dc/elements/1.1/"
   xmlns:cc="http://creativecommons.org/ns#"
   xmlns:rdf="http://www.w3.org/1999/02/22-rdf-syntax-ns#"
   xmlns:svg="http://www.w3.org/2000/svg"
   xmlns="http://www.w3.org/2000/svg"
   xmlns:sodipodi="http://sodipodi.sourceforge.net/DTD/sodipodi-0.dtd"
   xmlns:inkscape="http://www.inkscape.org/namespaces/inkscape"
   version="1.1"
   id="svg850"
   xml:space="preserve"
   width="561.01935"
   height="109.92346"
   viewBox="0 0 561.01933 109.92346"
   sodipodi:docname="logo_hostinger.svg"
   inkscape:version="0.92.2 2405546, 2018-03-11"><metadata
     id="metadata856"><rdf:RDF><cc:Work
         rdf:about=""><dc:format>image/svg+xml</dc:format><dc:type
           rdf:resource="http://purl.org/dc/dcmitype/StillImage" /><dc:title></dc:title></cc:Work></rdf:RDF></metadata><defs
     id="defs854"><clipPath
       clipPathUnits="userSpaceOnUse"
       id="clipPath886"><path
         d="M 0,578.892 H 1080.598 V 0 H 0 Z"
         id="path884"
         inkscape:connector-curvature="0" /></clipPath><clipPath
       clipPathUnits="userSpaceOnUse"
       id="clipPath928"><path
         d="M 0,578.892 H 1080.598 V 0 H 0 Z"
         id="path926"
         inkscape:connector-curvature="0" /></clipPath><clipPath
       clipPathUnits="userSpaceOnUse"
       id="clipPath988"><path
         d="M 0,578.892 H 1080.598 V 0 H 0 Z"
         id="path986"
         inkscape:connector-curvature="0" /></clipPath><clipPath
       clipPathUnits="userSpaceOnUse"
       id="clipPath1062"><path
         d="M 0,578.892 H 1080.598 V 0 H 0 Z"
         id="path1060"
         inkscape:connector-curvature="0" /></clipPath></defs><sodipodi:namedview
     pagecolor="#ffffff"
     bordercolor="#666666"
     borderopacity="1"
     objecttolerance="10"
     gridtolerance="10"
     guidetolerance="10"
     inkscape:pageopacity="0"
     inkscape:pageshadow="2"
     inkscape:window-width="1596"
     inkscape:window-height="861"
     id="namedview852"
     showgrid="false"
     inkscape:zoom="0.65727371"
     inkscape:cx="624.73669"
     inkscape:cy="257.11573"
     inkscape:window-x="0"
     inkscape:window-y="18"
     inkscape:window-maximized="0"
     inkscape:current-layer="g858" /><g
     id="g858"
     inkscape:groupmode="layer"
     inkscape:label="logo_hostinger"
     transform="matrix(1.3333333,0,0,-1.3333333,-95.663331,238.73573)"><g
       id="g918"
       transform="translate(185.2095,154.668)"><path
         d="M 0,0 H -8.487 V -34.214 H 0 v 14.651 h 12.149 v -14.651 h 8.308 V 0 h -8.308 l 0.089,-13.132 -12.327,-0.09 z"
         style="fill:#6747c7;fill-opacity:1;fill-rule:nonzero;stroke:none"
         id="path920"
         inkscape:connector-curvature="0" /></g><g
       id="g922"><g
         id="g924"
         clip-path="url(#clipPath928)"><g
           id="g930"
           transform="translate(237.7368,128.2256)"><path
             d="m 0,0 c -5.271,-3.306 -10.005,0.625 -10.005,0.625 -3.792,3.536 -3.822,8.335 -3.158,11.785 0.649,3.372 2.897,6.3 6.133,7.449 2.718,0.965 4.942,0.342 6.639,-0.764 C 2.278,17.354 3.623,14.28 3.9,11.105 4.646,2.591 0,0 0,0 m 12.048,13.22 c -0.304,2.072 -0.98,4.076 -2.104,5.843 -2.012,3.168 -6.2,7.637 -13.964,8.094 0,0 -12.328,2.144 -16.794,-12.149 0,0 -4.467,-16.527 8.397,-21.797 0,0 14.382,-5.897 22.333,6.253 0,0 3.4,5.1 2.132,13.756"
             style="fill:#6747c7;fill-opacity:1;fill-rule:nonzero;stroke:none"
             id="path932"
             inkscape:connector-curvature="0" /></g><g
           id="g934"
           transform="translate(279.9907,146.9854)"><path
             d="m 0,0 2.501,6.164 c 0,0 -7.494,4.145 -15.15,1.752 -4.317,-1.35 -7.525,-5.185 -7.621,-9.707 -0.063,-3 1.166,-6.367 5.977,-8.482 0,0 15.812,-5.092 8.218,-9.469 0,0 -4.287,-2.681 -12.417,1.786 l -2.501,-6.522 c 0,0 8.563,-4.5 17.167,-2.207 3.823,1.019 6.943,3.959 7.734,7.835 0.67,3.284 -0.067,7.504 -5.695,11.256 0,0 -3.67,1.801 -6.986,2.903 -1.242,0.412 -2.329,1.257 -2.871,2.449 -0.525,1.157 -0.526,2.558 1.606,3.507 0.959,0.426 2.017,0.565 3.064,0.504 C -5.373,1.676 -2.678,1.311 0,0"
             style="fill:#6747c7;fill-opacity:1;fill-rule:nonzero;stroke:none"
             id="path936"
             inkscape:connector-curvature="0" /></g><g
           id="g938"
           transform="translate(290.6211,148.0576)"><path
             d="M 0,0 V 6.699 H 28.497 V 0 H 18.313 L 18.224,-27.515 H 10.273 L 10.005,-0.09 Z"
             style="fill:#6747c7;fill-opacity:1;fill-rule:nonzero;stroke:none"
             id="path940"
             inkscape:connector-curvature="0" /></g><path
           d="m 328.051,120.543 h 8.397 v 34.214 h -8.397 z"
           style="fill:#6747c7;fill-opacity:1;fill-rule:nonzero;stroke:none"
           id="path942"
           inkscape:connector-curvature="0" /><g
           id="g944"
           transform="translate(348.7764,120.543)"><path
             d="M 0,0 C 0.089,0.446 0,34.214 0,34.214 H 6.611 L 21.529,15.187 v 19.027 h 8.219 L 29.748,0 H 22.869 L 7.861,21.797 8.219,0 Z"
             style="fill:#6747c7;fill-opacity:1;fill-rule:nonzero;stroke:none"
             id="path946"
             inkscape:connector-curvature="0" /></g><g
           id="g948"
           transform="translate(418.5449,121.7939)"><path
             d="M 0,0 V 16.429 H -7.951 V 5.002 h -6.253 c 0,0 -7.415,2.233 -6.432,14.204 0,0 1.876,11.971 17.688,5.36 L 0,31.355 c 0,0 -13.042,6.165 -22.78,-0.982 0,0 -10.451,-6.879 -4.288,-23.584 0,0 3.484,-7.594 11.524,-8.576 0,0 10.362,-1.608 15.544,1.787"
             style="fill:#6747c7;fill-opacity:1;fill-rule:nonzero;stroke:none"
             id="path950"
             inkscape:connector-curvature="0" /></g><g
           id="g952"
           transform="translate(430.2471,120.543)"><path
             d="M 0,0 V 34.214 H 23.227 V 27.425 H 8.308 v -6.164 l 13.043,0.09 V 14.025 L 8.397,14.114 V 7.058 L 24.298,6.7 V 0 Z"
             style="fill:#6747c7;fill-opacity:1;fill-rule:nonzero;stroke:none"
             id="path954"
             inkscape:connector-curvature="0" /></g><g
           id="g956"
           transform="translate(481.5,141.9424)"><path
             d="m 0,0 c -0.516,-0.983 -1.709,-2.313 -4.44,-2.64 h -4.827 v 8.844 h 4.265 c 0.807,0 1.611,-0.14 2.356,-0.451 C -1.414,5.238 0.109,4.165 0.353,1.977 0.428,1.301 0.316,0.603 0,0 m 2.615,-7.464 0.08,0.035 c 3.081,1.369 5.153,4.347 5.607,7.688 0.775,5.704 -2.052,8.95 -4.707,10.707 -1.949,1.289 -4.23,1.963 -6.554,2.197 -7.02,0.706 -14.526,-0.795 -14.526,-0.795 v -33.767 h 8.397 v 12.238 h 3.037 l 7.862,-12.238 h 9.201 z"
             style="fill:#6747c7;fill-opacity:1;fill-rule:nonzero;stroke:none"
             id="path958"
             inkscape:connector-curvature="0" /></g><g
           id="g960"
           transform="translate(71.7475,179.0518)"><path
             d="M 0,0 V -39.097 H 65.868 L 47.383,-28.26 H 20.186 l 0.424,17.848 z"
             style="fill:#6747c7;fill-opacity:1;fill-rule:nonzero;stroke:none"
             id="path962"
             inkscape:connector-curvature="0" /></g><g
           id="g964"
           transform="translate(123.8047,153.9795)"><path
             d="M 0,0 19.973,-12.537 V 14.66 L 0,25.072 Z"
             style="fill:#6747c7;fill-opacity:1;fill-rule:nonzero;stroke:none"
             id="path966"
             inkscape:connector-curvature="0" /></g><g
           id="g968"
           transform="translate(77.0596,135.4932)"><path
             d="m 0,0 19.335,-11.049 h 27.41 v -16.785 l 19.973,-11.05 V 0 Z"
             style="fill:#6747c7;fill-opacity:1;fill-rule:nonzero;stroke:none"
             id="path970"
             inkscape:connector-curvature="0" /></g><g
           id="g972"
           transform="translate(71.7475,132.5186)"><path
             d="m 0,0 v -26.135 l 20.398,-9.774 v 24.648 z"
             style="fill:#6747c7;fill-opacity:1;fill-rule:nonzero;stroke:none"
             id="path974"
             inkscape:connector-curvature="0" /></g></g></g><g
       id="g978"
       transform="translate(187.1846,408.668)"><path
         d="M 0,0 H -8.486 V -34.214 H 0 v 14.65 h 12.149 v -14.65 h 8.308 V 0 h -8.308 l 0.089,-13.132 -12.327,-0.089 z"
         style="fill:#ffffff;fill-opacity:1;fill-rule:nonzero;stroke:none"
         id="path980"
         inkscape:connector-curvature="0" /></g><g
       id="g982"><g
         id="g984"
         clip-path="url(#clipPath988)"><g
           id="g990"
           transform="translate(239.7119,382.2256)"><path
             d="m 0,0 c -5.271,-3.305 -10.005,0.625 -10.005,0.625 -3.792,3.536 -3.822,8.335 -3.158,11.785 0.649,3.373 2.897,6.3 6.133,7.449 2.718,0.965 4.942,0.343 6.639,-0.764 C 2.278,17.354 3.623,14.28 3.9,11.105 4.646,2.59 0,0 0,0 m 12.048,13.22 c -0.304,2.072 -0.98,4.076 -2.104,5.844 -2.012,3.167 -6.2,7.636 -13.964,8.093 0,0 -12.328,2.144 -16.794,-12.149 0,0 -4.467,-16.527 8.397,-21.798 0,0 14.382,-5.895 22.333,6.254 0,0 3.4,5.1 2.132,13.756"
             style="fill:#ffffff;fill-opacity:1;fill-rule:nonzero;stroke:none"
             id="path992"
             inkscape:connector-curvature="0" /></g><g
           id="g994"
           transform="translate(281.9658,400.9854)"><path
             d="m 0,0 2.501,6.164 c 0,0 -7.494,4.144 -15.15,1.752 -4.317,-1.35 -7.525,-5.184 -7.621,-9.707 -0.063,-3 1.166,-6.367 5.977,-8.482 0,0 15.812,-5.092 8.218,-9.47 0,0 -4.287,-2.679 -12.417,1.787 l -2.501,-6.521 c 0,0 8.563,-4.501 17.167,-2.208 3.823,1.018 6.943,3.96 7.734,7.836 0.67,3.283 -0.067,7.504 -5.695,11.256 0,0 -3.67,1.8 -6.986,2.901 -1.242,0.413 -2.329,1.259 -2.871,2.45 -0.525,1.157 -0.526,2.558 1.606,3.507 0.959,0.427 2.017,0.565 3.064,0.504 C -5.373,1.676 -2.678,1.31 0,0"
             style="fill:#ffffff;fill-opacity:1;fill-rule:nonzero;stroke:none"
             id="path996"
             inkscape:connector-curvature="0" /></g><g
           id="g998"
           transform="translate(292.5962,402.0571)"><path
             d="M 0,0 V 6.7 H 28.497 V 0 H 18.313 l -0.089,-27.514 h -7.951 l -0.268,27.425 z"
             style="fill:#ffffff;fill-opacity:1;fill-rule:nonzero;stroke:none"
             id="path1000"
             inkscape:connector-curvature="0" /></g><path
           d="m 330.026,374.543 h 8.397 v 34.214 h -8.397 z"
           style="fill:#ffffff;fill-opacity:1;fill-rule:nonzero;stroke:none"
           id="path1002"
           inkscape:connector-curvature="0" /><g
           id="g1004"
           transform="translate(350.7515,374.543)"><path
             d="M 0,0 C 0.089,0.447 0,34.214 0,34.214 H 6.611 L 21.529,15.187 v 19.027 h 8.219 L 29.748,0 H 22.869 L 7.861,21.797 8.219,0 Z"
             style="fill:#ffffff;fill-opacity:1;fill-rule:nonzero;stroke:none"
             id="path1006"
             inkscape:connector-curvature="0" /></g><g
           id="g1008"
           transform="translate(420.52,375.7935)"><path
             d="M 0,0 V 16.429 H -7.951 V 5.003 h -6.253 c 0,0 -7.415,2.233 -6.432,14.204 0,0 1.876,11.97 17.688,5.359 L 0,31.355 c 0,0 -13.042,6.165 -22.78,-0.982 0,0 -10.451,-6.878 -4.288,-23.583 0,0 3.484,-7.594 11.524,-8.577 0,0 10.363,-1.608 15.544,1.787"
             style="fill:#ffffff;fill-opacity:1;fill-rule:nonzero;stroke:none"
             id="path1010"
             inkscape:connector-curvature="0" /></g><g
           id="g1012"
           transform="translate(432.2227,374.543)"><path
             d="M 0,0 V 34.214 H 23.226 V 27.425 H 8.308 v -6.164 l 13.042,0.09 V 14.025 L 8.397,14.114 V 7.057 L 24.298,6.7 V 0 Z"
             style="fill:#ffffff;fill-opacity:1;fill-rule:nonzero;stroke:none"
             id="path1014"
             inkscape:connector-curvature="0" /></g><g
           id="g1016"
           transform="translate(483.4751,395.9424)"><path
             d="m 0,0 c -0.515,-0.984 -1.709,-2.312 -4.44,-2.64 h -4.827 v 8.844 h 4.265 c 0.808,0 1.611,-0.14 2.357,-0.451 C -1.414,5.238 0.109,4.165 0.353,1.977 0.428,1.301 0.316,0.603 0,0 m 2.615,-7.463 0.08,0.035 c 3.081,1.368 5.153,4.346 5.607,7.687 0.775,5.704 -2.052,8.95 -4.707,10.706 -1.949,1.289 -4.23,1.964 -6.554,2.198 -7.02,0.706 -14.526,-0.795 -14.526,-0.795 v -33.767 h 8.397 v 12.238 h 3.037 l 7.862,-12.238 h 9.201 z"
             style="fill:#ffffff;fill-opacity:1;fill-rule:nonzero;stroke:none"
             id="path1018"
             inkscape:connector-curvature="0" /></g><g
           id="g1020"
           transform="translate(73.7226,433.0518)"><path
             d="M 0,0 V -39.096 H 65.868 L 47.383,-28.26 H 20.186 l 0.424,17.848 z"
             style="fill:#ffffff;fill-opacity:1;fill-rule:nonzero;stroke:none"
             id="path1022"
             inkscape:connector-curvature="0" /></g><g
           id="g1024"
           transform="translate(125.7798,407.979)"><path
             d="M 0,0 19.973,-12.536 V 14.661 L 0,25.073 Z"
             style="fill:#ffffff;fill-opacity:1;fill-rule:nonzero;stroke:none"
             id="path1026"
             inkscape:connector-curvature="0" /></g><g
           id="g1028"
           transform="translate(79.0347,389.4937)"><path
             d="m 0,0 19.335,-11.049 h 27.41 V -27.835 L 66.718,-38.884 V 0 Z"
             style="fill:#ffffff;fill-opacity:1;fill-rule:nonzero;stroke:none"
             id="path1030"
             inkscape:connector-curvature="0" /></g><g
           id="g1032"
           transform="translate(73.7226,386.5186)"><path
             d="m 0,0 v -26.135 l 20.398,-9.774 v 24.648 z"
             style="fill:#ffffff;fill-opacity:1;fill-rule:nonzero;stroke:none"
             id="path1034"
             inkscape:connector-curvature="0" /></g></g></g><g
       id="g1036"
       transform="translate(747.2007,546.5635)"><path
         d="M 0,0 V -56.307 H 94.864 L 68.241,-40.7 h -39.17 l 0.612,25.705 z"
         style="fill:#ffffff;fill-opacity:1;fill-rule:nonzero;stroke:none"
         id="path1038"
         inkscape:connector-curvature="0" /></g><g
       id="g1040"
       transform="translate(822.1743,510.4536)"><path
         d="m 0,0 28.765,-18.055 v 39.17 L 0,36.11 Z"
         style="fill:#ffffff;fill-opacity:1;fill-rule:nonzero;stroke:none"
         id="path1042"
         inkscape:connector-curvature="0" /></g><g
       id="g1044"
       transform="translate(754.8511,483.8306)"><path
         d="M 0,0 27.847,-15.913 H 67.323 V -40.088 L 96.088,-56.001 V 0 Z"
         style="fill:#ffffff;fill-opacity:1;fill-rule:nonzero;stroke:none"
         id="path1046"
         inkscape:connector-curvature="0" /></g><g
       id="g1048"
       transform="translate(747.2007,479.5464)"><path
         d="m 0,0 v -37.64 l 29.377,-14.077 v 35.498 z"
         style="fill:#ffffff;fill-opacity:1;fill-rule:nonzero;stroke:none"
         id="path1050"
         inkscape:connector-curvature="0" /></g><g
       id="g1052"
       transform="translate(621.5107,381.1294)"><path
         d="M 0,0 H -9.958 V -40.145 H 0 v 17.19 h 14.255 v -17.19 h 9.748 V 0 h -9.748 l 0.105,-15.408 -14.465,-0.105 z"
         style="fill:#ffffff;fill-opacity:1;fill-rule:nonzero;stroke:none"
         id="path1054"
         inkscape:connector-curvature="0" /></g><g
       id="g1056"><g
         id="g1058"
         clip-path="url(#clipPath1062)"><g
           id="g1064"
           transform="translate(683.1431,350.104)"><path
             d="m 0,0 c -6.185,-3.878 -11.74,0.734 -11.74,0.734 -4.449,4.148 -4.484,9.779 -3.704,13.827 0.761,3.957 3.399,7.392 7.195,8.741 3.189,1.132 5.799,0.401 7.79,-0.898 C 2.673,20.362 4.251,16.755 4.576,13.03 5.45,3.04 0,0 0,0 m 14.136,15.511 c -0.358,2.432 -1.15,4.783 -2.468,6.857 -2.361,3.716 -7.276,8.96 -16.385,9.496 0,0 -14.465,2.516 -19.705,-14.255 0,0 -5.242,-19.391 9.852,-25.575 0,0 16.876,-6.918 26.204,7.337 0,0 3.99,5.985 2.502,16.14"
             style="fill:#ffffff;fill-opacity:1;fill-rule:nonzero;stroke:none"
             id="path1066"
             inkscape:connector-curvature="0" /></g><g
           id="g1068"
           transform="translate(732.7202,372.1152)"><path
             d="m 0,0 2.936,7.232 c 0,0 -8.793,4.863 -17.777,2.056 -5.066,-1.583 -8.83,-6.082 -8.942,-11.389 -0.074,-3.521 1.368,-7.471 7.012,-9.953 0,0 18.553,-5.974 9.644,-11.11 0,0 -5.031,-3.145 -14.569,2.096 l -2.935,-7.652 c 0,0 10.047,-5.28 20.142,-2.59 4.485,1.195 8.147,4.646 9.075,9.194 0.786,3.852 -0.078,8.804 -6.682,13.207 0,0 -4.306,2.112 -8.198,3.404 -1.456,0.484 -2.732,1.477 -3.367,2.875 -0.617,1.358 -0.617,3.001 1.884,4.114 1.125,0.501 2.366,0.663 3.595,0.592 C -6.304,1.967 -3.142,1.538 0,0"
             style="fill:#ffffff;fill-opacity:1;fill-rule:nonzero;stroke:none"
             id="path1070"
             inkscape:connector-curvature="0" /></g><g
           id="g1072"
           transform="translate(745.1938,373.373)"><path
             d="M 0,0 V 7.861 H 33.437 V 0 h -11.95 l -0.104,-32.283 h -9.329 l -0.315,32.178 z"
             style="fill:#ffffff;fill-opacity:1;fill-rule:nonzero;stroke:none"
             id="path1074"
             inkscape:connector-curvature="0" /></g><path
           d="m 789.112,341.09 h 9.853 v 40.145 h -9.853 z"
           style="fill:#ffffff;fill-opacity:1;fill-rule:nonzero;stroke:none"
           id="path1076"
           inkscape:connector-curvature="0" /><g
           id="g1078"
           transform="translate(813.4292,341.0898)"><path
             d="M 0,0 C 0.104,0.524 0,40.145 0,40.145 H 7.756 L 25.261,17.819 v 22.326 h 9.642 V 0 h -8.07 L 9.224,25.575 9.643,0 Z"
             style="fill:#ffffff;fill-opacity:1;fill-rule:nonzero;stroke:none"
             id="path1080"
             inkscape:connector-curvature="0" /></g><g
           id="g1082"
           transform="translate(895.2905,342.5571)"><path
             d="M 0,0 V 19.277 H -9.329 V 5.87 h -7.337 c 0,0 -8.699,2.62 -7.547,16.666 0,0 2.201,14.045 20.754,6.289 L 0,36.791 c 0,0 -15.304,7.232 -26.729,-1.153 0,0 -12.262,-8.071 -5.031,-27.672 0,0 4.088,-8.909 13.522,-10.062 0,0 12.159,-1.887 18.238,2.096"
             style="fill:#ffffff;fill-opacity:1;fill-rule:nonzero;stroke:none"
             id="path1084"
             inkscape:connector-curvature="0" /></g><g
           id="g1086"
           transform="translate(909.021,341.0898)"><path
             d="M 0,0 V 40.145 H 27.253 V 32.178 H 9.748 v -7.232 l 15.304,0.105 V 16.456 L 9.854,16.561 V 8.28 L 28.511,7.861 V 0 Z"
             style="fill:#ffffff;fill-opacity:1;fill-rule:nonzero;stroke:none"
             id="path1088"
             inkscape:connector-curvature="0" /></g><g
           id="g1090"
           transform="translate(969.1577,366.1982)"><path
             d="m 0,0 c -0.604,-1.154 -2.006,-2.713 -5.21,-3.097 h -5.663 V 7.28 h 5.004 c 0.947,0 1.89,-0.164 2.765,-0.53 C -1.659,6.146 0.128,4.887 0.413,2.319 0.502,1.526 0.37,0.707 0,0 m 3.068,-8.757 0.094,0.041 c 3.614,1.606 6.046,5.1 6.579,9.02 0.908,6.693 -2.408,10.502 -5.523,12.562 -2.286,1.513 -4.963,2.303 -7.691,2.578 -8.235,0.829 -17.043,-0.932 -17.043,-0.932 v -39.62 h 9.853 v 14.359 H -7.1 L 2.125,-25.108 H 12.92 Z"
             style="fill:#ffffff;fill-opacity:1;fill-rule:nonzero;stroke:none"
             id="path1092"
             inkscape:connector-curvature="0" /></g></g></g></g></svg>